<?xml version="1.0" standalone="no"?>
<!DOCTYPE svg PUBLIC "-//W3C//DTD SVG 20010904//EN"
 "http://www.w3.org/TR/2001/REC-SVG-20010904/DTD/svg10.dtd">
<svg version="1.0" xmlns="http://www.w3.org/2000/svg"
 width="600.000000pt" height="600.000000pt" viewBox="0 0 600.000000 600.000000"
 preserveAspectRatio="xMidYMid meet">
<metadata>
Created by potrace 1.14, written by Peter Selinger 2001-2017
</metadata>
<g transform="translate(0.000000,600.000000) scale(0.100000,-0.100000)"
fill="#000000" stroke="none">
<path d="M785 5432 c5 -9 0 -11 -17 -8 -37 6 -97 -23 -104 -50 -3 -13 -10 -24
-14 -24 -5 0 -7 -11 -5 -25 1 -14 -3 -25 -9 -25 -6 0 -5 -4 2 -9 8 -4 14 -12
14 -16 0 -4 -6 -12 -14 -16 -7 -5 -8 -9 -2 -9 12 0 12 -28 1 -47 -4 -6 -3 -15
3 -18 8 -5 7 -11 -1 -21 -7 -9 -8 -14 -1 -14 10 0 8 -37 -3 -48 -2 -3 0 -11 6
-18 7 -8 7 -14 -1 -19 -7 -4 -7 -12 0 -26 8 -14 7 -19 -2 -19 -8 0 -9 -3 -3
-8 12 -8 13 -32 2 -49 -4 -6 -3 -15 3 -18 8 -5 7 -11 -1 -21 -6 -8 -7 -14 -2
-14 5 0 10 -7 10 -15 0 -8 -5 -15 -10 -15 -6 0 -5 -5 1 -12 15 -19 15 -30 0
-39 -10 -7 -10 -9 0 -9 9 0 10 -5 2 -19 -7 -13 -7 -22 0 -26 14 -9 -8 -48 -23
-42 -7 2 -21 0 -32 -6 -11 -6 -33 -11 -48 -12 -16 -1 -32 -6 -35 -11 -7 -9
-20 -12 -69 -17 -13 -1 -23 -6 -23 -11 0 -5 -3 -6 -7 -3 -3 4 -12 2 -20 -4 -7
-6 -13 -8 -13 -4 0 4 -6 2 -14 -4 -8 -6 -18 -11 -22 -10 -21 4 -45 -2 -40 -9
2 -4 -5 -9 -17 -9 -59 -4 -66 -7 -113 -52 -18 -17 -22 -26 -14 -31 8 -5 9 -10
1 -14 -7 -4 -7 -15 -1 -31 6 -15 6 -27 0 -30 -6 -3 -6 -15 0 -29 5 -13 6 -27
3 -30 -10 -10 -8 -76 2 -76 7 0 7 -3 0 -8 -12 -9 -12 -242 0 -262 5 -7 4 -11
-1 -8 -5 4 -9 -202 -9 -502 0 -279 -3 -506 -6 -505 -8 6 -5 -28 5 -43 4 -7 2
-19 -4 -27 -7 -8 -8 -15 -3 -15 5 0 9 -9 10 -20 1 -11 -2 -18 -6 -16 -4 3 -8
-1 -8 -9 0 -8 3 -15 7 -15 9 0 6 -42 -4 -59 -5 -7 -5 -16 1 -20 10 -7 10 -62
-1 -79 -4 -7 -4 -12 1 -12 10 0 9 -52 -1 -68 -4 -7 -3 -12 2 -12 10 0 9 -30
-2 -48 -4 -7 -2 -12 4 -12 6 0 8 -5 3 -12 -11 -18 -13 -38 -3 -38 8 0 5 -43
-5 -59 -3 -6 -1 -11 5 -11 6 0 8 -5 4 -12 -12 -18 -11 -58 1 -58 5 0 3 -5 -5
-10 -13 -9 -13 -10 0 -10 12 0 12 -2 1 -9 -9 -6 -10 -11 -2 -15 6 -4 8 -13 4
-19 -11 -18 -12 -37 -2 -37 5 0 4 -12 -2 -27 -7 -20 -6 -28 3 -35 10 -6 10 -8
-1 -8 -10 0 -11 -3 -3 -13 7 -8 7 -18 2 -27 -5 -8 -6 -19 -2 -25 10 -16 11
-36 1 -29 -5 3 -9 1 -9 -5 0 -5 5 -13 10 -16 6 -4 7 -13 1 -23 -11 -21 -11
-33 0 -54 6 -12 6 -18 0 -18 -10 0 -7 -32 4 -49 3 -5 1 -13 -5 -16 -8 -5 -8
-11 -1 -19 6 -7 8 -16 4 -19 -12 -12 -12 -57 0 -57 8 0 8 -3 2 -8 -12 -8 -16
-174 -4 -167 11 8 5 -21 -9 -38 -10 -12 -10 -17 -1 -23 8 -5 9 -3 4 6 -5 9 -4
11 4 6 6 -4 8 -13 4 -19 -11 -18 -10 -71 2 -79 6 -5 5 -8 -3 -8 -8 0 -10 -8
-6 -26 5 -18 3 -25 -4 -20 -12 7 -4 -32 10 -51 6 -7 5 -14 -2 -18 -6 -4 -9
-14 -5 -23 3 -8 0 -19 -7 -24 -9 -5 -10 -8 -1 -8 8 0 10 -13 7 -41 -4 -32 -2
-39 8 -33 10 6 10 4 -1 -9 -11 -14 -11 -20 -1 -32 10 -12 9 -16 -4 -21 -9 -3
-13 -11 -9 -18 13 -19 12 -40 0 -48 -8 -5 -5 -8 8 -8 13 0 16 -3 8 -8 -13 -8
-15 -120 -1 -128 4 -3 5 -10 2 -17 -2 -7 6 -22 19 -32 28 -24 47 -29 47 -14 0
8 4 8 14 0 10 -9 16 -9 21 -1 5 8 11 8 21 -1 8 -6 14 -7 14 -2 0 5 12 10 27
11 15 1 30 8 35 15 6 9 8 8 8 -3 0 -10 3 -11 8 -4 7 11 69 30 85 26 4 -1 7 2
7 6 0 7 9 9 65 14 14 1 25 5 25 9 0 4 9 5 20 2 11 -3 20 0 20 6 0 6 3 10 8 10
4 -1 20 -1 35 0 19 1 26 5 21 14 -5 9 -4 9 6 0 8 -7 19 -9 29 -4 9 5 24 7 34
6 9 -2 17 1 17 6 0 4 7 6 15 3 9 -4 15 0 15 7 0 9 3 10 8 4 9 -12 42 -16 42
-5 0 4 14 7 30 6 17 -1 30 1 30 4 0 3 18 6 41 5 23 -1 51 4 64 11 18 9 23 9
19 0 -3 -7 4 -12 16 -12 11 0 19 5 16 11 -2 6 27 9 87 7 67 -3 92 0 98 10 5 8
9 8 9 2 0 -13 88 -13 109 0 9 6 12 5 8 -1 -4 -7 20 -11 69 -12 42 -1 84 -6 94
-11 13 -7 21 -7 25 0 4 6 13 7 23 2 9 -4 36 -8 59 -8 26 1 45 -4 48 -12 3 -10
10 -10 24 -2 12 6 22 6 26 1 3 -6 14 -8 25 -6 11 2 20 0 20 -5 0 -5 6 -7 14
-4 8 3 24 0 36 -6 17 -9 21 -9 15 0 -6 9 -3 9 11 2 11 -6 22 -10 27 -11 4 -1
10 -2 15 -2 4 -1 15 -1 25 0 9 1 17 -2 17 -8 0 -5 8 -9 18 -9 32 1 162 -31
180 -45 7 -5 15 -7 19 -4 3 4 12 2 20 -4 7 -6 13 -8 13 -4 0 4 12 0 26 -10 15
-9 24 -12 20 -7 -3 6 11 2 31 -8 21 -10 41 -16 45 -13 5 2 8 0 8 -6 0 -5 9 -8
19 -6 11 2 22 -3 25 -11 3 -9 10 -12 16 -9 5 3 10 2 10 -4 0 -6 6 -8 14 -5 8
3 17 0 21 -5 3 -6 11 -9 16 -6 5 4 9 2 9 -3 0 -9 47 -27 63 -24 4 1 7 -3 7 -9
0 -6 7 -8 16 -5 8 3 12 2 9 -4 -3 -6 0 -10 7 -10 8 0 25 -8 38 -17 14 -10 34
-19 45 -21 11 -1 23 -9 28 -17 4 -8 15 -11 23 -8 9 3 19 2 23 -3 13 -18 79
-63 84 -57 3 3 13 -2 22 -11 9 -9 20 -14 25 -11 4 3 10 -2 13 -10 10 -25 87
-53 136 -49 24 2 47 8 50 12 8 12 74 47 84 44 4 -1 7 4 7 12 0 8 5 18 12 22 7
4 8 3 4 -5 -4 -6 7 -3 25 8 18 11 37 17 42 14 6 -3 7 -1 3 5 -4 7 3 14 19 18
14 3 25 10 25 15 0 5 3 8 8 7 4 -1 26 8 50 20 23 12 42 20 42 16 0 -3 7 2 16
10 8 9 22 16 30 16 8 0 14 5 14 10 0 6 5 10 11 10 5 0 7 -6 4 -13 -4 -6 -1 -5
7 4 7 9 19 14 27 11 8 -2 11 0 8 5 -5 8 77 38 96 35 4 -1 7 6 7 16 0 13 2 14
9 3 6 -9 11 -10 15 -2 4 6 12 9 17 6 5 -4 9 -1 9 5 0 6 3 9 8 7 4 -3 23 3 43
12 20 10 43 17 52 15 10 -1 17 2 17 8 0 6 7 8 15 5 8 -4 17 -2 21 4 3 6 12 8
20 5 8 -3 14 -1 14 3 0 5 7 12 16 15 8 3 13 2 10 -3 -4 -5 3 -7 14 -4 11 3 18
8 16 12 -2 3 6 7 17 7 12 1 36 5 52 9 17 3 38 7 48 8 9 1 17 5 17 10 0 5 9 7
20 4 11 -3 22 -1 25 4 3 4 12 6 20 2 8 -3 15 -1 15 4 0 6 13 9 30 8 17 -1 30
1 30 5 0 4 20 6 45 5 34 -1 44 2 41 12 -4 11 -1 11 14 3 11 -6 20 -7 20 -3 0
5 19 8 43 7 23 0 49 3 58 7 9 5 21 3 29 -4 8 -7 11 -8 7 -1 -5 8 18 12 75 13
47 1 88 7 97 14 9 7 12 8 8 1 -4 -8 9 -11 43 -11 34 0 47 3 43 11 -4 7 -1 7 8
-1 8 -7 39 -12 69 -12 30 1 57 0 60 -1 3 0 24 -3 48 -5 30 -2 40 0 36 8 -5 9
-4 9 6 0 7 -6 19 -9 26 -6 8 3 14 1 14 -5 0 -5 14 -8 30 -7 17 1 33 -1 36 -6
3 -5 13 -5 24 1 10 6 21 6 24 2 3 -5 23 -8 46 -8 22 1 40 -2 40 -6 0 -4 8 -7
18 -7 32 1 93 -8 99 -15 3 -3 19 -6 34 -6 15 0 31 -5 34 -10 5 -8 11 -8 20 0
9 8 14 8 17 0 2 -6 18 -13 37 -15 18 -2 39 -9 46 -15 9 -8 14 -8 17 1 3 8 8 7
19 -3 8 -8 22 -14 32 -12 9 1 19 -2 22 -6 3 -5 14 -7 25 -5 13 3 18 0 14 -7
-5 -7 -1 -9 9 -5 10 3 17 2 17 -2 0 -5 9 -7 20 -4 12 3 20 0 20 -7 0 -9 3 -10
13 -1 8 6 17 8 20 5 12 -12 52 -10 65 3 8 7 19 10 25 6 7 -3 9 -3 5 2 -4 4 -2
17 4 28 16 30 15 3530 -1 3561 -11 19 -63 45 -98 48 -7 1 -13 4 -13 8 0 3 -10
6 -22 7 -11 1 -24 6 -27 10 -7 9 -26 14 -58 17 -13 0 -23 4 -23 9 0 4 -11 7
-25 7 -14 0 -25 4 -25 9 0 6 -9 8 -20 6 -11 -2 -20 0 -20 5 0 5 -9 7 -20 5
-11 -2 -20 0 -20 6 0 5 -13 9 -28 9 -15 0 -34 6 -41 13 -11 10 -12 9 -6 -1 6
-11 3 -11 -13 -1 -12 7 -18 17 -16 21 3 4 0 8 -7 8 -8 0 -8 4 2 16 7 9 9 18 3
22 -12 9 -12 35 1 45 6 6 6 10 -2 14 -9 3 -10 10 -3 24 8 13 7 19 0 19 -6 0
-8 4 -5 10 11 17 14 50 6 50 -12 0 -8 33 4 43 6 6 6 10 -2 14 -9 3 -10 10 -3
24 7 13 7 19 1 19 -7 0 -7 9 0 27 5 14 6 29 2 32 -11 8 -10 34 2 44 6 6 6 10
-2 14 -9 3 -10 10 -3 24 8 13 7 19 0 19 -6 0 -8 4 -5 10 10 16 14 50 7 50 -4
0 -8 9 -8 20 0 11 4 20 9 20 4 0 5 6 0 13 -4 6 -8 17 -9 24 -5 34 -59 79 -88
74 -4 -1 -15 4 -24 11 -14 11 -15 10 -9 -6 6 -15 5 -16 -5 -8 -8 7 -42 8 -88
5 -41 -3 -92 -6 -112 -7 -21 0 -38 -4 -38 -7 0 -3 -16 -5 -35 -4 -19 0 -35 -2
-35 -6 0 -3 -11 -5 -25 -4 -14 2 -25 0 -25 -5 0 -4 -9 -6 -20 -3 -11 3 -28 -1
-37 -8 -14 -12 -15 -12 -9 -1 7 11 4 12 -10 4 -11 -5 -35 -11 -54 -13 -19 -2
-41 -7 -47 -12 -7 -5 -13 -7 -13 -3 0 3 -16 0 -35 -8 -26 -11 -35 -12 -35 -3
0 8 -3 7 -9 -2 -5 -7 -22 -15 -37 -17 -16 -1 -30 -7 -32 -12 -2 -6 -12 -8 -22
-5 -11 3 -20 0 -20 -6 0 -6 -3 -10 -7 -9 -15 4 -73 -14 -73 -22 0 -4 -8 -6
-19 -3 -10 2 -25 -3 -35 -12 -9 -9 -16 -13 -16 -9 0 3 -8 0 -17 -7 -14 -12
-15 -12 -9 0 6 9 2 9 -15 -2 -13 -9 -27 -15 -31 -14 -4 1 -16 -5 -26 -14 -10
-8 -23 -14 -29 -12 -6 2 -17 -2 -25 -9 -7 -7 -20 -14 -28 -16 -8 -2 -41 -17
-72 -33 -32 -16 -58 -26 -58 -23 0 2 -6 -1 -14 -8 -8 -7 -11 -17 -8 -23 2 -5
-1 -5 -8 2 -10 9 -16 8 -27 -3 -8 -8 -19 -11 -25 -8 -6 4 -9 3 -6 -2 3 -5 0
-15 -8 -22 -11 -10 -14 -10 -14 0 0 8 -5 6 -11 -5 -6 -9 -14 -15 -20 -12 -5 4
-9 1 -9 -6 0 -7 -3 -10 -6 -6 -5 5 -27 -10 -59 -40 -7 -7 -15 -9 -19 -6 -3 4
-6 1 -6 -5 0 -7 -7 -12 -15 -12 -8 0 -15 -8 -15 -17 0 -13 -3 -14 -8 -6 -6 9
-12 7 -22 -7 -8 -11 -20 -20 -27 -20 -7 0 -13 -5 -13 -12 0 -6 -3 -8 -6 -5 -4
4 -15 -3 -25 -15 -11 -11 -19 -17 -19 -13 0 4 -11 -4 -25 -19 -14 -15 -25 -25
-25 -22 0 3 -9 -2 -21 -12 -50 -41 -67 -60 -62 -66 4 -3 -1 -6 -10 -6 -9 0
-21 -9 -27 -20 -6 -11 -15 -18 -20 -15 -5 3 -11 -4 -15 -15 -4 -11 -9 -19 -13
-17 -4 1 -39 -30 -78 -70 -40 -40 -69 -73 -66 -73 3 0 -15 -20 -41 -45 -26
-24 -47 -49 -47 -54 0 -6 -9 -15 -20 -21 -11 -6 -18 -15 -15 -19 3 -5 -2 -11
-10 -15 -8 -3 -15 -13 -15 -21 0 -9 -4 -14 -9 -11 -9 6 -26 -22 -23 -36 4 -17
-35 -6 -53 15 -10 12 -18 23 -17 25 3 3 -15 25 -50 63 -16 15 -28 31 -28 34 0
3 -17 24 -37 46 -60 64 -213 218 -213 215 0 -2 -23 19 -51 45 -28 27 -56 46
-62 42 -5 -3 -8 -2 -5 3 6 8 -15 35 -27 34 -22 -1 -27 1 -22 7 4 3 -16 21 -43
40 -28 18 -50 38 -50 43 0 5 -7 7 -15 4 -10 -4 -15 0 -15 11 0 9 -4 13 -10 10
-5 -3 -10 -1 -10 5 0 6 -4 9 -9 6 -5 -4 -11 -3 -13 1 -5 12 -66 53 -78 53 -5
0 -10 5 -10 10 0 6 -5 10 -11 10 -6 0 -17 7 -26 15 -8 8 -19 13 -24 10 -5 -4
-9 -1 -9 4 0 6 -10 11 -22 11 -12 0 -18 3 -15 7 7 6 -164 93 -183 93 -6 0 -9
4 -6 9 4 5 -2 8 -11 6 -10 -1 -25 4 -34 11 -8 7 -24 15 -36 17 -11 1 -32 10
-46 20 -15 9 -35 17 -47 17 -11 0 -20 4 -20 8 0 4 -8 9 -17 10 -35 4 -53 8
-59 15 -4 4 -16 7 -26 7 -10 0 -18 5 -18 11 0 6 -10 9 -22 7 -13 -2 -29 4 -36
12 -12 13 -13 13 -6 0 6 -12 5 -13 -7 -4 -8 6 -22 10 -31 9 -10 -2 -16 1 -15
7 2 9 -17 13 -92 21 -14 2 -26 8 -28 14 -2 5 -15 8 -29 5 -16 -3 -30 1 -35 9
-7 11 -9 11 -9 1 0 -7 -5 -10 -11 -6 -7 4 -30 9 -53 12 -23 2 -43 7 -46 11 -3
3 -23 7 -45 8 -60 2 -169 14 -177 19 -4 2 -9 0 -13 -6 -4 -6 -11 -7 -17 -4
-21 13 -88 14 -88 2 0 -6 -7 -3 -16 8 -8 10 -13 13 -9 6z"/>
</g>
</svg>
