<?xml version="1.0" standalone="no"?>
<!DOCTYPE svg PUBLIC "-//W3C//DTD SVG 20010904//EN"
 "http://www.w3.org/TR/2001/REC-SVG-20010904/DTD/svg10.dtd">
<svg version="1.0" xmlns="http://www.w3.org/2000/svg"
 width="600.000000pt" height="600.000000pt" viewBox="0 0 600.000000 600.000000"
 preserveAspectRatio="xMidYMid meet">

<g transform="translate(0.000000,600.000000) scale(0.100000,-0.100000)"
fill="#000000" stroke="none">
<path d="M715 5406 c-63 -28 -64 -34 -67 -367 l-3 -302 -40 -13 c-22 -6 -67
-19 -100 -28 -144 -40 -174 -49 -245 -73 -41 -14 -80 -29 -86 -34 -17 -14 -23
-514 -26 -2130 -3 -1252 -1 -1458 11 -1473 12 -14 27 -17 85 -13 39 2 87 9
106 15 94 29 297 77 390 92 487 80 1022 38 1480 -117 187 -63 489 -206 620
-292 85 -57 117 -56 219 8 209 131 488 253 746 325 33 9 76 21 95 27 186 52
482 89 715 89 314 0 564 -34 862 -116 71 -20 146 -34 178 -34 52 0 57 2 75 33
20 32 20 55 20 1780 0 1179 -3 1755 -10 1768 -18 33 -185 95 -413 153 -31 8
-62 18 -67 21 -6 4 -10 123 -10 315 l0 310 -29 32 -30 33 -108 -2 c-144 -3
-340 -27 -478 -59 -117 -27 -347 -101 -430 -139 -27 -12 -75 -33 -105 -46
-180 -76 -399 -210 -585 -357 -110 -88 -309 -286 -408 -407 -49 -60 -95 -111
-101 -112 -6 -1 -49 45 -96 103 -94 117 -276 302 -385 390 -261 212 -575 388
-862 482 -155 52 -232 75 -273 82 -25 5 -83 16 -130 25 -194 36 -468 53 -515
31z m350 -236 c162 -21 238 -36 355 -69 92 -26 246 -80 280 -98 14 -7 29 -13
33 -13 5 0 71 -31 147 -69 153 -77 301 -170 430 -269 136 -106 366 -341 469
-481 l91 -124 0 -1468 c0 -1074 -3 -1469 -11 -1469 -6 0 -61 52 -123 117 -101
105 -226 219 -346 314 -51 40 -179 129 -185 129 -3 0 -33 17 -67 38 -312 190
-685 318 -1058 362 -52 7 -115 15 -140 18 l-45 7 -3 1535 c-1 844 0 1541 3
1548 5 15 -9 16 170 -8z m4019 4 c10 -25 7 -3067 -3 -3083 -6 -9 -50 -18 -132
-27 -112 -12 -189 -24 -331 -54 -66 -13 -146 -36 -267 -76 -91 -30 -124 -43
-216 -84 -220 -97 -436 -228 -625 -381 -105 -84 -277 -250 -346 -334 -20 -25
-40 -42 -45 -39 -5 3 -9 632 -9 1482 l0 1477 94 126 c85 114 261 304 361 390
236 202 564 390 845 483 187 62 282 86 475 115 155 24 191 25 199 5z m-4444
-1966 c0 -991 3 -1278 13 -1297 27 -54 55 -63 209 -72 297 -17 435 -43 704
-134 72 -25 172 -65 223 -90 50 -25 93 -45 95 -45 9 0 164 -94 250 -152 140
-93 326 -248 326 -271 0 -11 0 -11 -140 38 -218 75 -515 135 -770 155 -355 28
-676 5 -1018 -71 -73 -16 -137 -27 -143 -24 -11 7 -13 3144 -1 3161 9 14 188
72 225 73 l27 1 0 -1272z m4835 1236 c44 -14 86 -31 93 -36 9 -8 12 -337 12
-1584 0 -982 -4 -1575 -10 -1579 -5 -3 -58 6 -117 19 -245 56 -510 87 -751 88
-228 0 -517 -26 -667 -62 -228 -53 -351 -87 -458 -127 -38 -14 -71 -22 -75
-18 -14 14 172 173 324 277 239 163 472 267 769 342 184 47 229 54 404 67 231
16 238 17 274 49 l32 28 3 1288 2 1287 43 -6 c23 -3 78 -18 122 -33z"/>
<path d="M4355 4562 c-268 -92 -460 -191 -694 -356 -155 -109 -293 -237 -305
-281 -13 -49 3 -95 43 -122 65 -44 108 -29 236 82 99 85 175 140 311 222 129
79 168 99 279 148 33 14 69 30 80 35 11 5 88 32 170 58 134 44 152 53 173 82
34 51 30 104 -12 146 -50 50 -102 47 -281 -14z"/>
<path d="M4370 3921 c-274 -91 -512 -216 -756 -397 -62 -45 -144 -112 -183
-149 -69 -65 -71 -69 -71 -115 0 -41 5 -53 30 -79 32 -32 84 -47 123 -37 13 3
62 39 108 81 149 133 343 263 520 348 144 69 155 73 321 127 101 34 163 59
177 74 71 75 19 197 -82 195 -23 0 -107 -22 -187 -48z"/>
<path d="M4495 3303 c-22 -8 -60 -21 -85 -28 -324 -94 -740 -332 -978 -561
-69 -67 -72 -71 -72 -116 0 -41 5 -52 35 -83 38 -37 77 -45 118 -23 12 6 62
45 112 87 114 96 208 165 311 229 91 57 279 153 357 183 29 11 61 24 72 29 11
5 67 23 125 40 131 39 146 46 170 86 25 40 25 78 0 119 -33 53 -90 66 -165 38z"/>
<path d="M4370 2624 c-74 -24 -153 -53 -175 -63 -22 -10 -65 -29 -95 -42 -214
-91 -504 -285 -672 -448 -65 -63 -68 -68 -68 -112 0 -39 5 -53 30 -78 32 -32
84 -47 123 -37 13 3 62 39 108 81 149 133 343 263 520 348 144 69 155 73 321
127 163 54 191 71 207 127 11 38 -8 96 -40 123 -38 31 -106 25 -259 -26z"/>
</g>
</svg>
